<svg width="32" height="32" xmlns="http://www.w3.org/2000/svg">
 <title>cross</title>

 <g>
  <title>background</title>
  <rect fill="none" id="canvas_background" height="402" width="582" y="-1" x="-1"/>
 </g>
 <g>
  <title>Layer 1</title>
  <path fill="#16277f" id="svg_1" d="m31.708,25.708c0,0 0,0 0,0l-9.708,-9.708l9.708,-9.708c0,0 0,0 0,0c0.105,-0.105 0.18,-0.227 0.229,-0.357c0.133,-0.356 0.057,-0.771 -0.229,-1.057l-4.586,-4.586c-0.286,-0.286 -0.702,-0.361 -1.057,-0.229c-0.13,0.048 -0.252,0.124 -0.357,0.228c0,0 0,0 0,0l-9.708,9.708l-9.708,-9.708c0,0 0,0 0,0c-0.105,-0.104 -0.227,-0.18 -0.357,-0.228c-0.356,-0.133 -0.771,-0.057 -1.057,0.229l-4.586,4.586c-0.286,0.286 -0.361,0.702 -0.229,1.057c0.049,0.13 0.124,0.252 0.229,0.357c0,0 0,0 0,0l9.708,9.708l-9.708,9.708c0,0 0,0 0,0c-0.104,0.105 -0.18,0.227 -0.229,0.357c-0.133,0.355 -0.057,0.771 0.229,1.057l4.586,4.586c0.286,0.286 0.702,0.361 1.057,0.229c0.13,-0.049 0.252,-0.124 0.357,-0.229c0,0 0,0 0,0l9.708,-9.708l9.708,9.708c0,0 0,0 0,0c0.105,0.105 0.227,0.18 0.357,0.229c0.356,0.133 0.771,0.057 1.057,-0.229l4.586,-4.586c0.286,-0.286 0.362,-0.702 0.229,-1.057c-0.049,-0.13 -0.124,-0.252 -0.229,-0.357z"/>
 </g>
</svg>